<mxfile host="app.diagrams.net" modified="2022-12-23T21:01:49.080Z" agent="5.0 (Windows NT 10.0; Win64; x64) AppleWebKit/537.36 (KHTML, like Gecko) Chrome/108.0.0.0 Safari/537.36" etag="ju621bevBe-UmbxBfBPK" version="20.7.4" type="github">
  <diagram id="N-ye-lETz2JTy3j9Kj3N" name="Page-1">
    <mxGraphModel dx="1655" dy="1503" grid="1" gridSize="10" guides="1" tooltips="1" connect="1" arrows="1" fold="1" page="1" pageScale="1" pageWidth="850" pageHeight="1100" math="0" shadow="0">
      <root>
        <mxCell id="0" />
        <mxCell id="1" parent="0" />
        <mxCell id="Yg1EDi9jOsSUKMhMHwPn-2" value="Users" style="swimlane;whiteSpace=wrap;html=1;" parent="1" vertex="1">
          <mxGeometry x="190" y="250" width="200" height="280" as="geometry" />
        </mxCell>
        <mxCell id="Yg1EDi9jOsSUKMhMHwPn-4" value="Last Name" style="text;html=1;align=center;verticalAlign=middle;resizable=0;points=[];autosize=1;strokeColor=none;fillColor=none;" parent="Yg1EDi9jOsSUKMhMHwPn-2" vertex="1">
          <mxGeometry x="25" y="60" width="80" height="30" as="geometry" />
        </mxCell>
        <mxCell id="Yg1EDi9jOsSUKMhMHwPn-5" value="Email" style="text;html=1;align=center;verticalAlign=middle;resizable=0;points=[];autosize=1;strokeColor=none;fillColor=none;" parent="Yg1EDi9jOsSUKMhMHwPn-2" vertex="1">
          <mxGeometry x="30" y="80" width="50" height="30" as="geometry" />
        </mxCell>
        <mxCell id="Yg1EDi9jOsSUKMhMHwPn-6" value="Password" style="text;html=1;align=center;verticalAlign=middle;resizable=0;points=[];autosize=1;strokeColor=none;fillColor=none;" parent="Yg1EDi9jOsSUKMhMHwPn-2" vertex="1">
          <mxGeometry x="20" y="130" width="80" height="30" as="geometry" />
        </mxCell>
        <mxCell id="Yg1EDi9jOsSUKMhMHwPn-13" value="Id" style="text;html=1;align=center;verticalAlign=middle;resizable=0;points=[];autosize=1;strokeColor=none;fillColor=none;" parent="Yg1EDi9jOsSUKMhMHwPn-2" vertex="1">
          <mxGeometry x="50" y="20" width="30" height="30" as="geometry" />
        </mxCell>
        <mxCell id="Yg1EDi9jOsSUKMhMHwPn-16" value="First Name" style="text;html=1;align=center;verticalAlign=middle;resizable=0;points=[];autosize=1;strokeColor=none;fillColor=none;" parent="Yg1EDi9jOsSUKMhMHwPn-2" vertex="1">
          <mxGeometry x="25" y="40" width="80" height="30" as="geometry" />
        </mxCell>
        <mxCell id="Yg1EDi9jOsSUKMhMHwPn-17" value="Is Admin" style="text;html=1;align=center;verticalAlign=middle;resizable=0;points=[];autosize=1;strokeColor=none;fillColor=none;" parent="Yg1EDi9jOsSUKMhMHwPn-2" vertex="1">
          <mxGeometry x="25" y="160" width="70" height="30" as="geometry" />
        </mxCell>
        <mxCell id="Yg1EDi9jOsSUKMhMHwPn-18" value="email Verified at&lt;br&gt;Updated at" style="text;html=1;align=center;verticalAlign=middle;resizable=0;points=[];autosize=1;strokeColor=none;fillColor=none;" parent="Yg1EDi9jOsSUKMhMHwPn-2" vertex="1">
          <mxGeometry x="10" y="200" width="110" height="40" as="geometry" />
        </mxCell>
        <mxCell id="Yg1EDi9jOsSUKMhMHwPn-19" value="Photo" style="text;html=1;align=center;verticalAlign=middle;resizable=0;points=[];autosize=1;strokeColor=none;fillColor=none;" parent="Yg1EDi9jOsSUKMhMHwPn-2" vertex="1">
          <mxGeometry x="35" y="110" width="50" height="30" as="geometry" />
        </mxCell>
        <mxCell id="Yg1EDi9jOsSUKMhMHwPn-8" value="Tokens" style="swimlane;whiteSpace=wrap;html=1;" parent="1" vertex="1">
          <mxGeometry x="640" y="140" width="200" height="200" as="geometry" />
        </mxCell>
        <mxCell id="Yg1EDi9jOsSUKMhMHwPn-9" value="&amp;nbsp;Id" style="text;html=1;align=center;verticalAlign=middle;resizable=0;points=[];autosize=1;strokeColor=none;fillColor=none;" parent="Yg1EDi9jOsSUKMhMHwPn-8" vertex="1">
          <mxGeometry x="40" y="40" width="40" height="30" as="geometry" />
        </mxCell>
        <mxCell id="Yg1EDi9jOsSUKMhMHwPn-10" value="Access Token" style="text;html=1;align=center;verticalAlign=middle;resizable=0;points=[];autosize=1;strokeColor=none;fillColor=none;" parent="Yg1EDi9jOsSUKMhMHwPn-8" vertex="1">
          <mxGeometry x="10" y="80" width="100" height="30" as="geometry" />
        </mxCell>
        <mxCell id="Yg1EDi9jOsSUKMhMHwPn-11" value="user Id" style="text;html=1;align=center;verticalAlign=middle;resizable=0;points=[];autosize=1;strokeColor=none;fillColor=none;" parent="Yg1EDi9jOsSUKMhMHwPn-8" vertex="1">
          <mxGeometry x="25" y="130" width="60" height="30" as="geometry" />
        </mxCell>
        <mxCell id="Yg1EDi9jOsSUKMhMHwPn-15" style="edgeStyle=orthogonalEdgeStyle;rounded=0;orthogonalLoop=1;jettySize=auto;html=1;" parent="1" source="Yg1EDi9jOsSUKMhMHwPn-11" target="Yg1EDi9jOsSUKMhMHwPn-13" edge="1">
          <mxGeometry relative="1" as="geometry" />
        </mxCell>
        <mxCell id="Yg1EDi9jOsSUKMhMHwPn-20" value="Places" style="swimlane;whiteSpace=wrap;html=1;" parent="1" vertex="1">
          <mxGeometry x="500" y="380" width="200" height="340" as="geometry" />
        </mxCell>
        <mxCell id="Yg1EDi9jOsSUKMhMHwPn-21" value="&amp;nbsp;Id" style="text;html=1;align=center;verticalAlign=middle;resizable=0;points=[];autosize=1;strokeColor=none;fillColor=none;" parent="Yg1EDi9jOsSUKMhMHwPn-20" vertex="1">
          <mxGeometry x="30" y="40" width="40" height="30" as="geometry" />
        </mxCell>
        <mxCell id="Yg1EDi9jOsSUKMhMHwPn-22" value="Place Name" style="text;html=1;align=center;verticalAlign=middle;resizable=0;points=[];autosize=1;strokeColor=none;fillColor=none;" parent="Yg1EDi9jOsSUKMhMHwPn-20" vertex="1">
          <mxGeometry x="10" y="60" width="90" height="30" as="geometry" />
        </mxCell>
        <mxCell id="Yg1EDi9jOsSUKMhMHwPn-23" value="Location" style="text;html=1;align=center;verticalAlign=middle;resizable=0;points=[];autosize=1;strokeColor=none;fillColor=none;" parent="Yg1EDi9jOsSUKMhMHwPn-20" vertex="1">
          <mxGeometry x="20" y="110" width="70" height="30" as="geometry" />
        </mxCell>
        <mxCell id="Yg1EDi9jOsSUKMhMHwPn-24" value="Place Description" style="text;html=1;align=center;verticalAlign=middle;resizable=0;points=[];autosize=1;strokeColor=none;fillColor=none;" parent="Yg1EDi9jOsSUKMhMHwPn-20" vertex="1">
          <mxGeometry y="85" width="120" height="30" as="geometry" />
        </mxCell>
        <mxCell id="Yg1EDi9jOsSUKMhMHwPn-25" value="Open From" style="text;html=1;align=center;verticalAlign=middle;resizable=0;points=[];autosize=1;strokeColor=none;fillColor=none;" parent="Yg1EDi9jOsSUKMhMHwPn-20" vertex="1">
          <mxGeometry x="15" y="140" width="80" height="30" as="geometry" />
        </mxCell>
        <mxCell id="Yg1EDi9jOsSUKMhMHwPn-26" value="Open To" style="text;html=1;align=center;verticalAlign=middle;resizable=0;points=[];autosize=1;strokeColor=none;fillColor=none;" parent="Yg1EDi9jOsSUKMhMHwPn-20" vertex="1">
          <mxGeometry x="20" y="170" width="70" height="30" as="geometry" />
        </mxCell>
        <mxCell id="pd-oybG8mUxYRVs1wByr-2" value="video" style="text;html=1;align=center;verticalAlign=middle;resizable=0;points=[];autosize=1;strokeColor=none;fillColor=none;" vertex="1" parent="Yg1EDi9jOsSUKMhMHwPn-20">
          <mxGeometry x="25" y="210" width="50" height="30" as="geometry" />
        </mxCell>
        <mxCell id="pd-oybG8mUxYRVs1wByr-25" value="Number of Views" style="text;html=1;align=center;verticalAlign=middle;resizable=0;points=[];autosize=1;strokeColor=none;fillColor=none;" vertex="1" parent="Yg1EDi9jOsSUKMhMHwPn-20">
          <mxGeometry y="270" width="110" height="30" as="geometry" />
        </mxCell>
        <mxCell id="pd-oybG8mUxYRVs1wByr-24" value="Number of Likes" style="text;html=1;align=center;verticalAlign=middle;resizable=0;points=[];autosize=1;strokeColor=none;fillColor=none;" vertex="1" parent="Yg1EDi9jOsSUKMhMHwPn-20">
          <mxGeometry y="240" width="110" height="30" as="geometry" />
        </mxCell>
        <mxCell id="Yg1EDi9jOsSUKMhMHwPn-29" value="user review place" style="swimlane;whiteSpace=wrap;html=1;" parent="1" vertex="1">
          <mxGeometry x="-60" y="475" width="200" height="150" as="geometry" />
        </mxCell>
        <mxCell id="Yg1EDi9jOsSUKMhMHwPn-30" value="User id" style="text;html=1;align=center;verticalAlign=middle;resizable=0;points=[];autosize=1;strokeColor=none;fillColor=none;" parent="Yg1EDi9jOsSUKMhMHwPn-29" vertex="1">
          <mxGeometry x="25" y="40" width="60" height="30" as="geometry" />
        </mxCell>
        <mxCell id="Yg1EDi9jOsSUKMhMHwPn-31" value="Review Number" style="text;html=1;align=center;verticalAlign=middle;resizable=0;points=[];autosize=1;strokeColor=none;fillColor=none;" parent="Yg1EDi9jOsSUKMhMHwPn-29" vertex="1">
          <mxGeometry y="80" width="110" height="30" as="geometry" />
        </mxCell>
        <mxCell id="Yg1EDi9jOsSUKMhMHwPn-33" value="Comment" style="text;html=1;align=center;verticalAlign=middle;resizable=0;points=[];autosize=1;strokeColor=none;fillColor=none;" parent="Yg1EDi9jOsSUKMhMHwPn-29" vertex="1">
          <mxGeometry x="20" y="110" width="80" height="30" as="geometry" />
        </mxCell>
        <mxCell id="Yg1EDi9jOsSUKMhMHwPn-41" value="&amp;nbsp;Id" style="text;html=1;align=center;verticalAlign=middle;resizable=0;points=[];autosize=1;strokeColor=none;fillColor=none;" parent="Yg1EDi9jOsSUKMhMHwPn-29" vertex="1">
          <mxGeometry x="70" y="20" width="40" height="30" as="geometry" />
        </mxCell>
        <mxCell id="Yg1EDi9jOsSUKMhMHwPn-42" value="place id" style="text;html=1;align=center;verticalAlign=middle;resizable=0;points=[];autosize=1;strokeColor=none;fillColor=none;" parent="Yg1EDi9jOsSUKMhMHwPn-29" vertex="1">
          <mxGeometry x="20" y="60" width="60" height="30" as="geometry" />
        </mxCell>
        <mxCell id="Yg1EDi9jOsSUKMhMHwPn-40" style="edgeStyle=orthogonalEdgeStyle;rounded=0;orthogonalLoop=1;jettySize=auto;html=1;fontSize=18;" parent="1" source="Yg1EDi9jOsSUKMhMHwPn-13" target="Yg1EDi9jOsSUKMhMHwPn-30" edge="1">
          <mxGeometry relative="1" as="geometry">
            <mxPoint x="255" y="652.7272727272727" as="targetPoint" />
          </mxGeometry>
        </mxCell>
        <mxCell id="Yg1EDi9jOsSUKMhMHwPn-44" style="edgeStyle=orthogonalEdgeStyle;rounded=0;orthogonalLoop=1;jettySize=auto;html=1;fontSize=18;" parent="1" source="Yg1EDi9jOsSUKMhMHwPn-21" target="Yg1EDi9jOsSUKMhMHwPn-42" edge="1">
          <mxGeometry relative="1" as="geometry" />
        </mxCell>
        <mxCell id="Yg1EDi9jOsSUKMhMHwPn-46" value="Ticket Prices" style="swimlane;whiteSpace=wrap;html=1;" parent="1" vertex="1">
          <mxGeometry x="170" y="660" width="200" height="250" as="geometry" />
        </mxCell>
        <mxCell id="Yg1EDi9jOsSUKMhMHwPn-47" value="&amp;nbsp;Id" style="text;html=1;align=center;verticalAlign=middle;resizable=0;points=[];autosize=1;strokeColor=none;fillColor=none;" parent="Yg1EDi9jOsSUKMhMHwPn-46" vertex="1">
          <mxGeometry x="30" y="40" width="40" height="30" as="geometry" />
        </mxCell>
        <mxCell id="Yg1EDi9jOsSUKMhMHwPn-48" value="Place id" style="text;html=1;align=center;verticalAlign=middle;resizable=0;points=[];autosize=1;strokeColor=none;fillColor=none;" parent="Yg1EDi9jOsSUKMhMHwPn-46" vertex="1">
          <mxGeometry x="20" y="60" width="70" height="30" as="geometry" />
        </mxCell>
        <mxCell id="Yg1EDi9jOsSUKMhMHwPn-54" value="price" style="text;html=1;align=center;verticalAlign=middle;resizable=0;points=[];autosize=1;strokeColor=none;fillColor=none;" parent="Yg1EDi9jOsSUKMhMHwPn-46" vertex="1">
          <mxGeometry x="25" y="210" width="50" height="30" as="geometry" />
        </mxCell>
        <mxCell id="Yg1EDi9jOsSUKMhMHwPn-60" value="For id" style="text;html=1;align=center;verticalAlign=middle;resizable=0;points=[];autosize=1;strokeColor=none;fillColor=none;" parent="Yg1EDi9jOsSUKMhMHwPn-46" vertex="1">
          <mxGeometry x="20" y="180" width="50" height="30" as="geometry" />
        </mxCell>
        <mxCell id="Yg1EDi9jOsSUKMhMHwPn-53" style="edgeStyle=orthogonalEdgeStyle;rounded=0;orthogonalLoop=1;jettySize=auto;html=1;entryX=0.498;entryY=-0.119;entryDx=0;entryDy=0;entryPerimeter=0;fontSize=18;" parent="1" source="Yg1EDi9jOsSUKMhMHwPn-48" target="Yg1EDi9jOsSUKMhMHwPn-22" edge="1">
          <mxGeometry relative="1" as="geometry" />
        </mxCell>
        <mxCell id="Yg1EDi9jOsSUKMhMHwPn-55" value="tickets classes" style="swimlane;whiteSpace=wrap;html=1;startSize=23;" parent="1" vertex="1">
          <mxGeometry x="580" y="800" width="200" height="120" as="geometry" />
        </mxCell>
        <mxCell id="Yg1EDi9jOsSUKMhMHwPn-56" value="&amp;nbsp;Id" style="text;html=1;align=center;verticalAlign=middle;resizable=0;points=[];autosize=1;strokeColor=none;fillColor=none;" parent="Yg1EDi9jOsSUKMhMHwPn-55" vertex="1">
          <mxGeometry x="30" y="40" width="40" height="30" as="geometry" />
        </mxCell>
        <mxCell id="Yg1EDi9jOsSUKMhMHwPn-57" value="For" style="text;html=1;align=center;verticalAlign=middle;resizable=0;points=[];autosize=1;strokeColor=none;fillColor=none;" parent="Yg1EDi9jOsSUKMhMHwPn-55" vertex="1">
          <mxGeometry x="35" y="60" width="40" height="30" as="geometry" />
        </mxCell>
        <mxCell id="Yg1EDi9jOsSUKMhMHwPn-61" style="edgeStyle=orthogonalEdgeStyle;rounded=0;orthogonalLoop=1;jettySize=auto;html=1;fontSize=18;" parent="1" source="Yg1EDi9jOsSUKMhMHwPn-56" target="Yg1EDi9jOsSUKMhMHwPn-60" edge="1">
          <mxGeometry relative="1" as="geometry" />
        </mxCell>
        <mxCell id="pd-oybG8mUxYRVs1wByr-3" value="places gallery" style="swimlane;whiteSpace=wrap;html=1;" vertex="1" parent="1">
          <mxGeometry x="730" y="430" width="200" height="140" as="geometry" />
        </mxCell>
        <mxCell id="pd-oybG8mUxYRVs1wByr-4" value="&amp;nbsp;Id" style="text;html=1;align=center;verticalAlign=middle;resizable=0;points=[];autosize=1;strokeColor=none;fillColor=none;" vertex="1" parent="pd-oybG8mUxYRVs1wByr-3">
          <mxGeometry x="30" y="40" width="40" height="30" as="geometry" />
        </mxCell>
        <mxCell id="pd-oybG8mUxYRVs1wByr-5" value="Place id" style="text;html=1;align=center;verticalAlign=middle;resizable=0;points=[];autosize=1;strokeColor=none;fillColor=none;" vertex="1" parent="pd-oybG8mUxYRVs1wByr-3">
          <mxGeometry x="20" y="60" width="70" height="30" as="geometry" />
        </mxCell>
        <mxCell id="pd-oybG8mUxYRVs1wByr-7" value="image" style="text;html=1;align=center;verticalAlign=middle;resizable=0;points=[];autosize=1;strokeColor=none;fillColor=none;" vertex="1" parent="pd-oybG8mUxYRVs1wByr-3">
          <mxGeometry x="30" y="85" width="60" height="30" as="geometry" />
        </mxCell>
        <mxCell id="pd-oybG8mUxYRVs1wByr-11" style="edgeStyle=orthogonalEdgeStyle;rounded=0;orthogonalLoop=1;jettySize=auto;html=1;entryX=0.975;entryY=0.3;entryDx=0;entryDy=0;entryPerimeter=0;fontSize=18;" edge="1" parent="1" source="pd-oybG8mUxYRVs1wByr-5" target="Yg1EDi9jOsSUKMhMHwPn-21">
          <mxGeometry relative="1" as="geometry" />
        </mxCell>
        <mxCell id="pd-oybG8mUxYRVs1wByr-12" value="user Favourite" style="swimlane;whiteSpace=wrap;html=1;" vertex="1" parent="1">
          <mxGeometry x="370" y="-70" width="200" height="280" as="geometry" />
        </mxCell>
        <mxCell id="pd-oybG8mUxYRVs1wByr-16" value="Id" style="text;html=1;align=center;verticalAlign=middle;resizable=0;points=[];autosize=1;strokeColor=none;fillColor=none;" vertex="1" parent="pd-oybG8mUxYRVs1wByr-12">
          <mxGeometry x="50" y="20" width="30" height="30" as="geometry" />
        </mxCell>
        <mxCell id="pd-oybG8mUxYRVs1wByr-17" value="user Id" style="text;html=1;align=center;verticalAlign=middle;resizable=0;points=[];autosize=1;strokeColor=none;fillColor=none;" vertex="1" parent="pd-oybG8mUxYRVs1wByr-12">
          <mxGeometry x="35" y="40" width="60" height="30" as="geometry" />
        </mxCell>
        <mxCell id="pd-oybG8mUxYRVs1wByr-21" value="place Id" style="text;html=1;align=center;verticalAlign=middle;resizable=0;points=[];autosize=1;strokeColor=none;fillColor=none;" vertex="1" parent="pd-oybG8mUxYRVs1wByr-12">
          <mxGeometry x="30" y="70" width="70" height="30" as="geometry" />
        </mxCell>
        <mxCell id="pd-oybG8mUxYRVs1wByr-22" style="edgeStyle=orthogonalEdgeStyle;rounded=0;orthogonalLoop=1;jettySize=auto;html=1;fontSize=18;" edge="1" parent="1" source="pd-oybG8mUxYRVs1wByr-17" target="Yg1EDi9jOsSUKMhMHwPn-13">
          <mxGeometry relative="1" as="geometry" />
        </mxCell>
        <mxCell id="pd-oybG8mUxYRVs1wByr-23" style="edgeStyle=orthogonalEdgeStyle;rounded=0;orthogonalLoop=1;jettySize=auto;html=1;entryX=0.5;entryY=0;entryDx=0;entryDy=0;entryPerimeter=0;fontSize=18;" edge="1" parent="1" source="pd-oybG8mUxYRVs1wByr-21" target="Yg1EDi9jOsSUKMhMHwPn-21">
          <mxGeometry relative="1" as="geometry" />
        </mxCell>
        <mxCell id="pd-oybG8mUxYRVs1wByr-26" value="محمد اسماعيلية&lt;br&gt;احمد اسماعيلية&lt;br&gt;محمد اسكندرية&lt;br&gt;اسامة اسكندرية" style="rounded=0;whiteSpace=wrap;html=1;fontSize=18;" vertex="1" parent="1">
          <mxGeometry x="390" y="-590" width="120" height="60" as="geometry" />
        </mxCell>
      </root>
    </mxGraphModel>
  </diagram>
</mxfile>
